{
  "source": "C:\\Users\\Peter\\Desktop\\stuff\\MIUN\\quantitative_research\\video_compression\\videos\\BVI-HD\\RockWater_1920x1080_30fps.mp4",
  "output": "C:\\Users\\Peter\\Desktop\\stuff\\MIUN\\quantitative_research\\video_compression\\compressed_videos\\BVI-HD\\av1\\4\\RockWater_1920x1080_30fps_av1.mkv",
  "codec": "av1",
  "ok": "Input #0, mov,mp4,m4a,3gp,3g2,mj2, from 'C:\\Users\\Peter\\Desktop\\stuff\\MIUN\\quantitative_research\\video_compression\\videos\\BVI-HD\\RockWater_1920x1080_30fps.mp4':\n  Metadata:\n    major_brand     : isom\n    minor_version   : 512\n    compatible_brands: isomiso2avc1mp41\n    encoder         : Lavf54.28.101\n  Duration: 00:00:05.00, start: 0.000000, bitrate: 245943 kb/s\n  Stream #0:0[0x1](und): Video: h264 (High 4:4:4 Predictive) (avc1 / 0x31637661), yuv420p(progressive), 1920x1080, 245940 kb/s, 30 fps, 30 tbr, 30 tbn (default)\n    Metadata:\n      handler_name    : VideoHandler\n      vendor_id       : [0][0][0][0]\n[out#0/matroska @ 0000016eb6740d00] Codec AVOption b:a (set bitrate (in bits/s)) has not been used for any stream. The most likely reason is either wrong type (e.g. a video option with no video streams) or that it is a private option of some decoder which was not actually used for any stream.\nStream mapping:\n  Stream #0:0 -> #0:0 (h264 (native) -> av1 (libsvtav1))\nPress [q] to stop, [?] for help\nSvt[info]: -------------------------------------------\nSvt[info]: SVT [version]:\tSVT-AV1 Encoder Lib v3.1.0-19-g6ecfe8ec\nSvt[info]: SVT [build]  :\tGCC 15.2.0\t 64 bit\nSvt[info]: LIB Build date: Aug 17 2025 11:37:13\nSvt[info]: -------------------------------------------\nSvt[info]: Level of Parallelism: 5\nSvt[info]: Number of PPCS 93\nSvt[info]: [asm level on system : up to avx2]\nSvt[info]: [asm level selected : up to avx2]\nSvt[info]: -------------------------------------------\nSvt[info]: SVT [config]: main profile\ttier (auto)\tlevel (auto)\nSvt[info]: SVT [config]: width / height / fps numerator / fps denominator \t\t: 1920 / 1080 / 30 / 1\nSvt[info]: SVT [config]: bit-depth / color format \t\t\t\t\t: 8 / YUV420\nSvt[info]: SVT [config]: preset / tune / pred struct \t\t\t\t\t: 4 / PSNR / random access\nSvt[info]: SVT [config]: gop size / mini-gop size / key-frame type \t\t\t: 161 / 16 / key frame\nSvt[info]: SVT [config]: BRC mode / target bitrate (kbps)\t\t\t\t: VBR / 4000 \nSvt[info]: SVT [config]: AQ mode / Variance Boost \t\t\t\t\t: 2 / 0\nSvt[info]: SVT [config]: sharpness / luminance-based QP bias \t\t\t\t: 0 / 0\nSvt[info]: SVT [config]: QP scale compress strength \t\t\t\t\t: 0\nSvt[info]: -------------------------------------------\nOutput #0, matroska, to 'C:\\Users\\Peter\\Desktop\\stuff\\MIUN\\quantitative_research\\video_compression\\compressed_videos\\BVI-HD\\av1\\4\\RockWater_1920x1080_30fps_av1.mkv':\n  Metadata:\n    major_brand     : isom\n    minor_version   : 512\n    compatible_brands: isomiso2avc1mp41\n    encoder         : Lavf62.3.100\n  Stream #0:0(und): Video: av1 (AV01 / 0x31305641), yuv420p(tv, progressive), 1920x1080, q=2-31, 4000 kb/s, 30 fps, 1k tbn (default)\n    Metadata:\n      encoder         : Lavc62.11.100 libsvtav1\n      handler_name    : VideoHandler\n      vendor_id       : [0][0][0][0]\n    Side data:\n      cpb: bitrate max/min/avg: 0/0/4000000 buffer size: 4000000 vbv_delay: N/A\nframe=    0 fps=0.0 q=0.0 size=       0KiB time=N/A bitrate=N/A speed=N/A elapsed=0:00:01.03    \nframe=    0 fps=0.0 q=0.0 size=       0KiB time=N/A bitrate=N/A speed=N/A elapsed=0:00:01.56    \nframe=    0 fps=0.0 q=0.0 size=       0KiB time=N/A bitrate=N/A speed=N/A elapsed=0:00:02.08    \nframe=    0 fps=0.0 q=0.0 size=       0KiB time=N/A bitrate=N/A speed=N/A elapsed=0:00:02.60    \nframe=    0 fps=0.0 q=0.0 size=       0KiB time=N/A bitrate=N/A speed=N/A elapsed=0:00:03.12    \nframe=    0 fps=0.0 q=0.0 size=       0KiB time=N/A bitrate=N/A speed=N/A elapsed=0:00:03.64    \nframe=    1 fps=0.2 q=26.0 size=       1KiB time=00:00:00.00 bitrate=N/A speed=   0x elapsed=0:00:04.15    \nframe=    1 fps=0.2 q=26.0 size=       1KiB time=00:00:00.00 bitrate=N/A speed=   0x elapsed=0:00:04.66    \nframe=    1 fps=0.2 q=26.0 size=       1KiB time=00:00:00.00 bitrate=N/A speed=   0x elapsed=0:00:05.18    \nframe=    1 fps=0.2 q=26.0 size=       1KiB time=00:00:00.00 bitrate=N/A speed=   0x elapsed=0:00:05.70    \nframe=    3 fps=0.5 q=37.0 size=       1KiB time=00:00:00.06 bitrate=  85.6kbits/s speed=0.0107x elapsed=0:00:06.21    \nframe=    5 fps=0.7 q=36.0 size=       1KiB time=00:00:00.13 bitrate=  42.8kbits/s speed=0.0198x elapsed=0:00:06.73    \nframe=    7 fps=1.0 q=36.0 size=       1KiB time=00:00:00.20 bitrate=  28.5kbits/s speed=0.0276x elapsed=0:00:07.24    \nframe=    9 fps=1.2 q=34.0 size=       1KiB time=00:00:00.26 bitrate=  21.4kbits/s speed=0.0344x elapsed=0:00:07.76    \nframe=   10 fps=1.2 q=37.0 size=       1KiB time=00:00:00.30 bitrate=  19.0kbits/s speed=0.0363x elapsed=0:00:08.27    \nframe=   13 fps=1.5 q=34.0 size=       1KiB time=00:00:00.40 bitrate=  14.3kbits/s speed=0.0455x elapsed=0:00:08.79    \nframe=   16 fps=1.7 q=39.0 size=       1KiB time=00:00:00.50 bitrate=  11.4kbits/s speed=0.0537x elapsed=0:00:09.31    \nframe=   19 fps=1.9 q=36.0 size=       1KiB time=00:00:00.60 bitrate=   9.5kbits/s speed=0.0611x elapsed=0:00:09.82    \nframe=   20 fps=1.9 q=39.0 size=       1KiB time=00:00:00.63 bitrate=   9.0kbits/s speed=0.0613x elapsed=0:00:10.33    \nframe=   22 fps=2.0 q=39.0 size=       1KiB time=00:00:00.70 bitrate=   8.1kbits/s speed=0.0644x elapsed=0:00:10.86    \nframe=   23 fps=2.0 q=36.0 size=       1KiB time=00:00:00.73 bitrate=   7.8kbits/s speed=0.0645x elapsed=0:00:11.37    \nframe=   26 fps=2.2 q=40.0 size=       1KiB time=00:00:00.83 bitrate=   6.8kbits/s speed=0.0701x elapsed=0:00:11.89    \nframe=   27 fps=2.2 q=36.0 size=       1KiB time=00:00:00.86 bitrate=   6.6kbits/s speed=0.0699x elapsed=0:00:12.40    \nframe=   31 fps=2.4 q=37.0 size=       1KiB time=00:00:01.00 bitrate=   5.7kbits/s speed=0.0774x elapsed=0:00:12.92    \nframe=   34 fps=2.5 q=41.0 size=       1KiB time=00:00:01.10 bitrate=   5.2kbits/s speed=0.0819x elapsed=0:00:13.43    \nframe=   36 fps=2.6 q=41.0 size=       1KiB time=00:00:01.16 bitrate=   4.9kbits/s speed=0.0836x elapsed=0:00:13.94    \nframe=   38 fps=2.6 q=41.0 size=       1KiB time=00:00:01.23 bitrate=   4.6kbits/s speed=0.0852x elapsed=0:00:14.47    \nframe=   39 fps=2.6 q=39.0 size=       1KiB time=00:00:01.26 bitrate=   4.5kbits/s speed=0.0845x elapsed=0:00:14.98    \nframe=   41 fps=2.6 q=32.0 size=       1KiB time=00:00:01.33 bitrate=   4.3kbits/s speed=0.086x elapsed=0:00:15.50    \nframe=   43 fps=2.7 q=38.0 size=       1KiB time=00:00:01.40 bitrate=   4.1kbits/s speed=0.0874x elapsed=0:00:16.02    \nframe=   46 fps=2.8 q=43.0 size=       1KiB time=00:00:01.50 bitrate=   3.8kbits/s speed=0.0907x elapsed=0:00:16.54    \nframe=   49 fps=2.9 q=25.0 size=       1KiB time=00:00:01.60 bitrate=   3.6kbits/s speed=0.0937x elapsed=0:00:17.06    \nframe=   51 fps=2.9 q=40.0 size=       1KiB time=00:00:01.66 bitrate=   3.4kbits/s speed=0.0948x elapsed=0:00:17.58    \nframe=   55 fps=3.0 q=40.0 size=       1KiB time=00:00:01.80 bitrate=   3.2kbits/s speed=0.0994x elapsed=0:00:18.11    \nframe=   57 fps=3.1 q=34.0 size=       1KiB time=00:00:01.86 bitrate=   3.1kbits/s speed= 0.1x elapsed=0:00:18.62    \nframe=   57 fps=3.0 q=34.0 size=       1KiB time=00:00:01.86 bitrate=   3.1kbits/s speed=0.0976x elapsed=0:00:19.13    \nframe=   59 fps=3.0 q=40.0 size=       1KiB time=00:00:01.93 bitrate=   3.0kbits/s speed=0.0984x elapsed=0:00:19.65    \nframe=   61 fps=3.0 q=37.0 size=       1KiB time=00:00:02.00 bitrate=   2.9kbits/s speed=0.0991x elapsed=0:00:20.17    \nframe=   65 fps=3.1 q=26.0 size=       1KiB time=00:00:02.13 bitrate=   2.7kbits/s speed=0.103x elapsed=0:00:20.68    \nframe=   69 fps=3.3 q=38.0 size=       1KiB time=00:00:02.26 bitrate=   2.5kbits/s speed=0.107x elapsed=0:00:21.19    \nframe=   71 fps=3.3 q=41.0 size=       1KiB time=00:00:02.33 bitrate=   2.4kbits/s speed=0.107x elapsed=0:00:21.72    \nframe=   73 fps=3.3 q=36.0 size=       1KiB time=00:00:02.40 bitrate=   2.4kbits/s speed=0.108x elapsed=0:00:22.23    \nframe=   75 fps=3.3 q=41.0 size=       1KiB time=00:00:02.46 bitrate=   2.3kbits/s speed=0.108x elapsed=0:00:22.74    \nframe=   77 fps=3.3 q=38.0 size=       1KiB time=00:00:02.53 bitrate=   2.3kbits/s speed=0.109x elapsed=0:00:23.27    \nframe=   81 fps=3.4 q=29.0 size=       1KiB time=00:00:02.66 bitrate=   2.1kbits/s speed=0.112x elapsed=0:00:23.80    \nframe=   85 fps=3.5 q=41.0 size=       1KiB time=00:00:02.80 bitrate=   2.0kbits/s speed=0.115x elapsed=0:00:24.31    \nframe=   89 fps=3.6 q=38.0 size=       1KiB time=00:00:02.93 bitrate=   1.9kbits/s speed=0.118x elapsed=0:00:24.82    \nframe=   89 fps=3.5 q=38.0 size=       1KiB time=00:00:02.93 bitrate=   1.9kbits/s speed=0.116x elapsed=0:00:25.34    \nframe=   93 fps=3.6 q=41.0 size=       1KiB time=00:00:03.06 bitrate=   1.9kbits/s speed=0.119x elapsed=0:00:25.85    \nframe=   95 fps=3.6 q=43.0 size=       1KiB time=00:00:03.13 bitrate=   1.8kbits/s speed=0.119x elapsed=0:00:26.37    \nframe=   97 fps=3.6 q=32.0 size=       1KiB time=00:00:03.20 bitrate=   1.8kbits/s speed=0.119x elapsed=0:00:26.89    \nframe=  101 fps=3.7 q=39.0 size=       1KiB time=00:00:03.33 bitrate=   1.7kbits/s speed=0.122x elapsed=0:00:27.40    \nframe=  103 fps=3.7 q=42.0 size=       1KiB time=00:00:03.40 bitrate=   1.7kbits/s speed=0.122x elapsed=0:00:27.92    \nframe=  105 fps=3.7 q=41.0 size=       1KiB time=00:00:03.46 bitrate=   1.6kbits/s speed=0.122x elapsed=0:00:28.43    \nframe=  105 fps=3.6 q=41.0 size=       1KiB time=00:00:03.46 bitrate=   1.6kbits/s speed=0.12x elapsed=0:00:28.95    \nframe=  109 fps=3.7 q=39.0 size=       1KiB time=00:00:03.60 bitrate=   1.6kbits/s speed=0.122x elapsed=0:00:29.46    \nframe=  109 fps=3.6 q=39.0 size=       1KiB time=00:00:03.60 bitrate=   1.6kbits/s speed=0.12x elapsed=0:00:29.98    \nframe=  113 fps=3.7 q=35.0 size=       1KiB time=00:00:03.73 bitrate=   1.5kbits/s speed=0.122x elapsed=0:00:30.49    \nframe=  117 fps=3.8 q=38.0 size=       1KiB time=00:00:03.86 bitrate=   1.5kbits/s speed=0.125x elapsed=0:00:31.02    \nframe=  121 fps=3.8 q=39.0 size=       1KiB time=00:00:04.00 bitrate=   1.4kbits/s speed=0.127x elapsed=0:00:31.53    \nframe=  121 fps=3.8 q=39.0 size=       1KiB time=00:00:04.00 bitrate=   1.4kbits/s speed=0.125x elapsed=0:00:32.04    \nframe=  123 fps=3.8 q=42.0 size=       1KiB time=00:00:04.06 bitrate=   1.4kbits/s speed=0.125x elapsed=0:00:32.56    \nframe=  125 fps=3.8 q=40.0 size=       1KiB time=00:00:04.13 bitrate=   1.4kbits/s speed=0.125x elapsed=0:00:33.07    \nframe=  129 fps=3.8 q=33.0 size=       1KiB time=00:00:04.26 bitrate=   1.3kbits/s speed=0.127x elapsed=0:00:33.58    \nframe=  131 fps=3.8 q=43.0 size=       1KiB time=00:00:04.33 bitrate=   1.3kbits/s speed=0.127x elapsed=0:00:34.11    \nframe=  133 fps=3.8 q=43.0 size=       1KiB time=00:00:04.40 bitrate=   1.3kbits/s speed=0.127x elapsed=0:00:34.63    \nframe=  137 fps=3.9 q=40.0 size=       1KiB time=00:00:04.53 bitrate=   1.3kbits/s speed=0.129x elapsed=0:00:35.14    \nframe=  137 fps=3.8 q=40.0 size=       1KiB time=00:00:04.53 bitrate=   1.3kbits/s speed=0.127x elapsed=0:00:35.65    \nframe=  141 fps=3.9 q=43.0 size=       1KiB time=00:00:04.66 bitrate=   1.2kbits/s speed=0.129x elapsed=0:00:36.16    \nframe=  143 fps=3.9 q=43.0 size=       1KiB time=00:00:04.73 bitrate=   1.2kbits/s speed=0.129x elapsed=0:00:36.68    \n[out#0/matroska @ 0000016eb6740d00] video:2610KiB audio:0KiB subtitle:0KiB other streams:0KiB global headers:0KiB muxing overhead: 0.055196%\nframe=  150 fps=4.1 q=43.0 Lsize=    2611KiB time=00:00:04.96 bitrate=4306.7kbits/s speed=0.135x elapsed=0:00:36.73    \n",
  "seconds": 37.14357352256775,
  "probe_out": {}
}